<svg width="266" height="270" viewBox="0 0 266 270" fill="none" xmlns="http://www.w3.org/2000/svg">
<path d="M262.509 146.305C262.509 212.808 207.488 266.805 139.509 266.805C71.5307 266.805 16.5093 212.808 16.5093 146.305C16.5093 79.8018 71.5307 25.8049 139.509 25.8049C207.488 25.8049 262.509 79.8018 262.509 146.305Z" fill="#5568EC" stroke="url(#paint0_linear_14_48)" stroke-width="5"/>
<g filter="url(#filter0_d_14_48)">
<rect x="5" y="61.9402" width="220" height="150.074" rx="5" transform="rotate(-15 5 61.9402)" fill="#E1E2E3"/>
</g>
<path fill-rule="evenodd" clip-rule="evenodd" d="M50.9608 233.468L26.5929 142.526C25.8782 139.859 27.4611 137.117 30.1284 136.402L232.973 82.0502C235.64 81.3355 238.382 82.9184 239.097 85.5857L262.26 172.032C257.902 192.104 248.548 210.364 235.535 225.503L97.899 262.383C80.0673 256.243 64.0777 246.268 50.9608 233.468Z" fill="#E1E2E3"/>
<path d="M118.49 71.7068L213.332 46.2941C215.999 45.5794 218.741 47.1623 219.456 49.8297L249.737 162.843C250.452 165.51 248.869 168.252 246.202 168.967L151.36 194.379L118.49 71.7068Z" fill="white"/>
<rect x="23.1841" y="96.8678" width="201.601" height="128.193" rx="4.5" transform="rotate(-15 23.1841 96.8678)" stroke="black"/>
<line x1="31.9429" y1="129.064" x2="226.88" y2="75.3568" stroke="black" stroke-width="0.5"/>
<line x1="39.9429" y1="159.064" x2="234.88" y2="105.357" stroke="black" stroke-width="0.5"/>
<line x1="47.9429" y1="190.064" x2="242.88" y2="136.357" stroke="black" stroke-width="0.5"/>
<path fill-rule="evenodd" clip-rule="evenodd" d="M245.934 211.525L81.731 255.523C81.2896 255.298 80.8498 255.071 80.4115 254.841L246.72 210.279C246.46 210.696 246.198 211.111 245.934 211.525ZM255.504 193.347L252.61 182.547C251.895 179.879 249.154 178.297 246.486 179.011L63.8737 227.942C61.2064 228.657 59.6235 231.399 60.3382 234.066L62.937 243.765C63.3661 244.089 63.7974 244.411 64.2308 244.73L61.3041 233.807C60.7323 231.673 61.9987 229.48 64.1325 228.908L246.745 179.977C248.879 179.405 251.072 180.672 251.644 182.806L254.866 194.829C255.082 194.336 255.294 193.842 255.504 193.347Z" fill="#7C89EA"/>
<path d="M140.17 222.974C140.069 222.712 139.891 222.534 139.637 222.441C139.385 222.348 139.089 222.347 138.749 222.438C138.51 222.502 138.315 222.593 138.164 222.71C138.012 222.828 137.908 222.961 137.85 223.109C137.793 223.256 137.784 223.41 137.825 223.569C137.86 223.701 137.92 223.807 138.006 223.888C138.094 223.968 138.199 224.028 138.322 224.068C138.445 224.105 138.576 224.13 138.716 224.141C138.856 224.152 138.994 224.155 139.132 224.152L139.765 224.141C140.018 224.133 140.268 224.146 140.514 224.182C140.761 224.217 140.992 224.283 141.205 224.38C141.421 224.477 141.607 224.613 141.765 224.79C141.922 224.966 142.038 225.191 142.111 225.464C142.21 225.835 142.203 226.186 142.089 226.519C141.975 226.85 141.76 227.142 141.444 227.397C141.13 227.649 140.72 227.842 140.214 227.978C139.722 228.11 139.274 228.148 138.871 228.093C138.47 228.037 138.129 227.89 137.847 227.653C137.567 227.414 137.362 227.088 137.233 226.672L138.36 226.37C138.436 226.586 138.553 226.751 138.711 226.865C138.87 226.979 139.054 227.047 139.265 227.067C139.478 227.088 139.704 227.066 139.942 227.002C140.191 226.935 140.4 226.84 140.567 226.715C140.736 226.588 140.856 226.444 140.927 226.281C140.998 226.117 141.01 225.944 140.963 225.762C140.917 225.598 140.832 225.475 140.709 225.393C140.585 225.31 140.428 225.255 140.238 225.228C140.049 225.2 139.834 225.187 139.592 225.19L138.823 225.197C138.267 225.203 137.801 225.111 137.426 224.92C137.052 224.727 136.804 224.404 136.683 223.951C136.583 223.578 136.597 223.225 136.723 222.891C136.852 222.557 137.071 222.265 137.379 222.017C137.687 221.767 138.062 221.583 138.505 221.464C138.954 221.344 139.368 221.317 139.747 221.383C140.128 221.446 140.452 221.59 140.719 221.814C140.986 222.036 141.17 222.324 141.272 222.678L140.17 222.974ZM145.683 226.509C145.207 226.637 144.77 226.648 144.371 226.543C143.974 226.435 143.634 226.224 143.351 225.91C143.068 225.593 142.86 225.187 142.727 224.691C142.596 224.203 142.574 223.75 142.661 223.332C142.749 222.911 142.933 222.553 143.213 222.257C143.493 221.96 143.859 221.75 144.312 221.629C144.604 221.55 144.893 221.524 145.177 221.549C145.464 221.572 145.733 221.654 145.985 221.796C146.239 221.938 146.464 222.144 146.66 222.416C146.856 222.685 147.01 223.028 147.121 223.444L147.213 223.786L143.326 224.828L143.124 224.075L145.94 223.32C145.88 223.107 145.783 222.929 145.648 222.786C145.512 222.642 145.35 222.543 145.161 222.49C144.975 222.436 144.775 222.438 144.561 222.495C144.332 222.556 144.146 222.666 144.003 222.823C143.86 222.979 143.764 223.159 143.715 223.364C143.668 223.566 143.671 223.774 143.726 223.986L143.902 224.644C143.976 224.919 144.09 225.143 144.244 225.313C144.397 225.482 144.578 225.594 144.787 225.651C144.996 225.705 145.222 225.7 145.465 225.635C145.627 225.591 145.768 225.529 145.888 225.448C146.007 225.366 146.103 225.266 146.175 225.15C146.248 225.033 146.291 224.901 146.304 224.754L147.379 224.592C147.387 224.886 147.326 225.16 147.196 225.415C147.067 225.668 146.875 225.89 146.62 226.08C146.363 226.267 146.051 226.411 145.683 226.509ZM148.135 218.976L149.829 225.299L148.712 225.598L147.018 219.276L148.135 218.976ZM153.102 224.521C152.627 224.648 152.19 224.66 151.791 224.555C151.394 224.447 151.054 224.236 150.771 223.922C150.488 223.605 150.28 223.198 150.147 222.702C150.016 222.215 149.994 221.762 150.081 221.344C150.169 220.923 150.353 220.565 150.633 220.269C150.913 219.972 151.279 219.762 151.732 219.641C152.024 219.562 152.313 219.536 152.597 219.561C152.883 219.584 153.153 219.666 153.405 219.808C153.659 219.949 153.884 220.156 154.08 220.428C154.276 220.697 154.43 221.04 154.541 221.456L154.633 221.798L150.746 222.84L150.544 222.086L153.36 221.332C153.3 221.119 153.203 220.941 153.068 220.798C152.932 220.654 152.77 220.555 152.581 220.502C152.395 220.448 152.195 220.45 151.981 220.507C151.752 220.568 151.566 220.678 151.423 220.835C151.28 220.99 151.183 221.171 151.135 221.376C151.087 221.578 151.091 221.785 151.146 221.998L151.322 222.656C151.396 222.931 151.51 223.155 151.664 223.325C151.817 223.494 151.998 223.606 152.207 223.662C152.416 223.717 152.642 223.711 152.885 223.646C153.047 223.603 153.188 223.541 153.308 223.46C153.427 223.378 153.523 223.278 153.595 223.162C153.668 223.045 153.711 222.913 153.724 222.766L154.799 222.604C154.807 222.897 154.746 223.172 154.616 223.427C154.487 223.68 154.295 223.902 154.039 224.091C153.783 224.279 153.471 224.422 153.102 224.521ZM158.225 223.149C157.751 223.275 157.317 223.28 156.922 223.164C156.529 223.046 156.191 222.829 155.91 222.512C155.63 222.192 155.426 221.792 155.298 221.312C155.168 220.831 155.147 220.381 155.234 219.963C155.32 219.543 155.504 219.185 155.786 218.888C156.07 218.59 156.444 218.378 156.907 218.254C157.292 218.151 157.651 218.131 157.986 218.193C158.321 218.253 158.612 218.388 158.858 218.598C159.104 218.806 159.285 219.077 159.401 219.412L158.333 219.698C158.228 219.482 158.074 219.319 157.871 219.21C157.669 219.099 157.433 219.079 157.164 219.151C156.935 219.213 156.751 219.328 156.611 219.498C156.471 219.666 156.383 219.877 156.347 220.131C156.314 220.385 156.34 220.671 156.426 220.99C156.512 221.313 156.634 221.579 156.791 221.786C156.947 221.991 157.128 222.133 157.332 222.213C157.538 222.29 157.757 222.298 157.99 222.235C158.155 222.191 158.294 222.121 158.407 222.025C158.521 221.925 158.607 221.804 158.663 221.661C158.72 221.518 158.742 221.357 158.729 221.177L159.797 220.891C159.86 221.234 159.841 221.557 159.74 221.863C159.638 222.166 159.459 222.43 159.204 222.655C158.948 222.877 158.622 223.042 158.225 223.149ZM162.246 216.89L162.478 217.754L159.752 218.484L159.52 217.62L162.246 216.89ZM159.889 216.304L161.006 216.004L162.199 220.456C162.239 220.606 162.293 220.715 162.36 220.783C162.428 220.849 162.504 220.886 162.588 220.894C162.672 220.903 162.76 220.894 162.853 220.87C162.923 220.851 162.985 220.829 163.04 220.803C163.097 220.777 163.14 220.755 163.168 220.739L163.591 221.562C163.537 221.598 163.457 221.644 163.353 221.698C163.25 221.752 163.12 221.803 162.963 221.849C162.685 221.932 162.422 221.958 162.173 221.925C161.923 221.891 161.706 221.792 161.521 221.63C161.339 221.467 161.209 221.237 161.131 220.94L159.889 216.304ZM164.942 215.502L164.685 214.542L169.73 213.19L169.987 214.15L168.033 214.674L169.469 220.036L168.333 220.341L166.897 214.978L164.942 215.502ZM173.092 219.168C172.791 219.249 172.506 219.268 172.237 219.225C171.969 219.18 171.736 219.07 171.54 218.896C171.345 218.721 171.206 218.478 171.123 218.167C171.051 217.9 171.041 217.665 171.093 217.464C171.145 217.262 171.242 217.086 171.385 216.936C171.528 216.785 171.699 216.654 171.899 216.543C172.1 216.43 172.312 216.33 172.536 216.243C172.806 216.14 173.025 216.054 173.192 215.985C173.358 215.914 173.473 215.843 173.538 215.773C173.605 215.7 173.624 215.61 173.595 215.503L173.59 215.484C173.528 215.252 173.411 215.09 173.239 215C173.066 214.909 172.851 214.898 172.591 214.968C172.318 215.041 172.117 215.159 171.988 215.321C171.862 215.483 171.792 215.653 171.78 215.83L170.697 215.962C170.702 215.652 170.774 215.374 170.911 215.13C171.048 214.884 171.24 214.676 171.488 214.506C171.736 214.334 172.025 214.203 172.356 214.114C172.585 214.053 172.819 214.019 173.06 214.012C173.301 214.005 173.531 214.038 173.752 214.111C173.971 214.182 174.166 214.308 174.335 214.487C174.507 214.666 174.635 214.913 174.719 215.228L175.57 218.402L174.495 218.69L174.321 218.038L174.284 218.048C174.251 218.198 174.188 218.347 174.096 218.496C174.005 218.641 173.876 218.774 173.71 218.894C173.545 219.011 173.339 219.102 173.092 219.168ZM173.162 218.269C173.386 218.209 173.569 218.113 173.71 217.98C173.85 217.846 173.945 217.692 173.993 217.52C174.044 217.348 174.046 217.174 173.999 216.999L173.85 216.441C173.822 216.479 173.77 216.522 173.692 216.569C173.616 216.616 173.53 216.662 173.432 216.708C173.334 216.754 173.236 216.798 173.139 216.839C173.042 216.881 172.958 216.917 172.887 216.947C172.726 217.014 172.587 217.091 172.469 217.178C172.351 217.265 172.266 217.364 172.215 217.478C172.163 217.588 172.157 217.716 172.195 217.86C172.25 218.066 172.367 218.201 172.545 218.266C172.724 218.331 172.929 218.332 173.162 218.269ZM179.506 213.608L178.517 213.992C178.461 213.897 178.385 213.814 178.288 213.742C178.194 213.671 178.08 213.623 177.946 213.599C177.811 213.576 177.658 213.587 177.485 213.634C177.252 213.696 177.07 213.799 176.939 213.942C176.81 214.085 176.767 214.236 176.812 214.396C176.847 214.534 176.928 214.633 177.054 214.692C177.182 214.75 177.374 214.775 177.63 214.766L178.485 214.722C178.959 214.699 179.334 214.763 179.608 214.914C179.885 215.065 180.069 215.31 180.162 215.649C180.24 215.948 180.223 216.235 180.112 216.51C180.002 216.782 179.811 217.023 179.541 217.232C179.271 217.441 178.938 217.599 178.543 217.704C177.962 217.86 177.463 217.864 177.043 217.716C176.624 217.566 176.322 217.282 176.137 216.863L177.198 216.466C177.305 216.667 177.453 216.801 177.643 216.867C177.833 216.933 178.056 216.931 178.314 216.862C178.579 216.791 178.778 216.68 178.909 216.528C179.042 216.375 179.087 216.218 179.044 216.058C179.008 215.922 178.926 215.824 178.797 215.764C178.67 215.703 178.491 215.678 178.261 215.689L177.406 215.736C176.926 215.763 176.547 215.694 176.269 215.528C175.99 215.36 175.805 215.103 175.715 214.756C175.634 214.465 175.646 214.19 175.749 213.933C175.853 213.674 176.034 213.447 176.291 213.252C176.549 213.055 176.867 212.906 177.246 212.804C177.802 212.655 178.271 212.656 178.653 212.808C179.038 212.958 179.322 213.225 179.506 213.608ZM182.085 215.061L181.72 213.713L181.899 213.665L183.093 211.304L184.399 210.954L182.928 213.849L182.696 213.911L182.085 215.061ZM181.464 216.822L179.77 210.5L180.888 210.2L182.582 216.523L181.464 216.822ZM184.44 216.025L182.319 214.281L182.861 213.291L185.777 215.667L184.44 216.025Z" fill="black"/>
<rect x="49.0064" y="102.022" width="53" height="5" rx="2.5" transform="rotate(-15 49.0064 102.022)" fill="#C5C6C7"/>
<rect x="51.0064" y="107.283" width="33.7829" height="5" rx="2.5" transform="rotate(-15 51.0064 107.283)" fill="#C5C6C7"/>
<rect x="146.009" y="75.0223" width="53" height="5" rx="2.5" transform="rotate(-15 146.009 75.0223)" fill="#C5C6C7"/>
<rect x="148.009" y="80.2829" width="33.7829" height="5" rx="2.5" transform="rotate(-15 148.009 80.2829)" fill="#C5C6C7"/>
<rect x="57.0093" y="133.022" width="53" height="5" rx="2.5" transform="rotate(-15 57.0093 133.022)" fill="#C5C6C7"/>
<rect x="59.0093" y="138.283" width="33.7829" height="5" rx="2.5" transform="rotate(-15 59.0093 138.283)" fill="#C5C6C7"/>
<rect x="154.012" y="106.022" width="53" height="5" rx="2.5" transform="rotate(-15 154.012 106.022)" fill="#C5C6C7"/>
<rect x="156.012" y="111.283" width="33.7829" height="5" rx="2.5" transform="rotate(-15 156.012 111.283)" fill="#C5C6C7"/>
<rect x="65.0093" y="163.022" width="53" height="5" rx="2.5" transform="rotate(-15 65.0093 163.022)" fill="#C5C6C7"/>
<rect x="67.0093" y="168.283" width="33.7829" height="5" rx="2.5" transform="rotate(-15 67.0093 168.283)" fill="#C5C6C7"/>
<rect x="162.012" y="136.022" width="53" height="5" rx="2.5" transform="rotate(-15 162.012 136.022)" fill="#C5C6C7"/>
<rect x="164.012" y="141.283" width="33.7829" height="5" rx="2.5" transform="rotate(-15 164.012 141.283)" fill="#C5C6C7"/>
<rect x="73.0123" y="194.022" width="53" height="5" rx="2.5" transform="rotate(-15 73.0123 194.022)" fill="#C5C6C7"/>
<rect x="75.0123" y="199.283" width="33.7829" height="5" rx="2.5" transform="rotate(-15 75.0123 199.283)" fill="#C5C6C7"/>
<rect x="170.015" y="167.022" width="53" height="5" rx="2.5" transform="rotate(-15 170.015 167.022)" fill="#C5C6C7"/>
<rect x="172.015" y="172.283" width="33.7829" height="5" rx="2.5" transform="rotate(-15 172.015 172.283)" fill="#C5C6C7"/>
<path d="M124.509 52.8049C124.509 57.2522 121.123 60.8049 117.009 60.8049C112.895 60.8049 109.509 57.2522 109.509 52.8049C109.509 48.3577 112.895 44.8049 117.009 44.8049C121.123 44.8049 124.509 48.3577 124.509 52.8049Z" stroke="#B6BCE8"/>
<path d="M116.029 58.1949L114.399 58.6316L115.108 49.4065L116.993 48.9014L122.224 56.535L120.594 56.9717L116.547 50.8739L116.481 50.8916L116.029 58.1949ZM115.197 54.8753L119.642 53.6841L119.971 54.9107L115.526 56.1019L115.197 54.8753Z" fill="black"/>
<defs>
<filter id="filter0_d_14_48" x="0.122467" y="0.122498" width="257.101" height="207.656" filterUnits="userSpaceOnUse" color-interpolation-filters="sRGB">
<feFlood flood-opacity="0" result="BackgroundImageFix"/>
<feColorMatrix in="SourceAlpha" type="matrix" values="0 0 0 0 0 0 0 0 0 0 0 0 0 0 0 0 0 0 127 0" result="hardAlpha"/>
<feOffset dx="-2" dy="-2"/>
<feGaussianBlur stdDeviation="2"/>
<feComposite in2="hardAlpha" operator="out"/>
<feColorMatrix type="matrix" values="0 0 0 0 0 0 0 0 0 0 0 0 0 0 0 0 0 0 0.25 0"/>
<feBlend mode="normal" in2="BackgroundImageFix" result="effect1_dropShadow_14_48"/>
<feBlend mode="normal" in="SourceGraphic" in2="effect1_dropShadow_14_48" result="shape"/>
</filter>
<linearGradient id="paint0_linear_14_48" x1="139.509" y1="23.3049" x2="139.509" y2="269.305" gradientUnits="userSpaceOnUse">
<stop stop-color="#2433A6"/>
<stop offset="1" stop-color="#6676EB"/>
</linearGradient>
</defs>
</svg>
