<svg width="265" height="268" viewBox="0 0 265 268" fill="none" xmlns="http://www.w3.org/2000/svg">
<path d="M248.509 144.305C248.509 210.808 193.488 264.805 125.509 264.805C57.5306 264.805 2.50933 210.808 2.50933 144.305C2.50933 77.8018 57.5306 23.8049 125.509 23.8049C193.488 23.8049 248.509 77.8018 248.509 144.305Z" fill="#5568EC" stroke="url(#paint0_linear_18_167)" stroke-width="5"/>
<g filter="url(#filter0_d_18_167)">
<rect x="50.9505" y="5.03369" width="220" height="150.074" rx="5" transform="rotate(15 50.9505 5.03369)" fill="white"/>
</g>
<path fill-rule="evenodd" clip-rule="evenodd" d="M4.59542 177.905L29.1163 86.3922C29.831 83.7249 32.5727 82.142 35.24 82.8567L238.084 137.209C240.752 137.923 242.335 140.665 241.62 143.332L219.188 227.049C204.774 242.855 186.253 254.988 165.268 261.837L30.887 225.83C18.7557 212.171 9.65069 195.861 4.59542 177.905Z" fill="white"/>
<path d="M48.5963 47.9295C49.311 45.2622 52.0526 43.6793 54.72 44.394L149.562 69.8067L116.692 192.479L21.85 167.067C19.1826 166.352 17.5997 163.61 18.3144 160.943L48.5963 47.9295Z" fill="#E1E2E3"/>
<rect x="50.3841" y="42.582" width="201.601" height="128.193" rx="4.5" transform="rotate(15 50.3841 42.582)" stroke="black"/>
<line x1="41.9963" y1="74.9828" x2="237.306" y2="127.316" stroke="black" stroke-width="0.5"/>
<line x1="32.9591" y1="106.031" x2="228.269" y2="158.364" stroke="black" stroke-width="0.5"/>
<line x1="25.6631" y1="136.045" x2="220.973" y2="188.378" stroke="black" stroke-width="0.5"/>
<path fill-rule="evenodd" clip-rule="evenodd" d="M9.37351 190.728L11.8626 181.439C12.5773 178.771 15.319 177.188 17.9863 177.903L200.599 226.834C203.266 227.549 204.849 230.29 204.134 232.958L201.802 241.664C195.491 246.407 188.707 250.576 181.531 254.091L20.1321 210.844C15.9441 204.516 12.3336 197.787 9.37351 190.728Z" fill="url(#paint1_linear_18_167)"/>
<path d="M78.0006 205.383L78.2579 204.423L83.3022 205.774L83.045 206.734L81.0908 206.211L79.654 211.573L78.5179 211.269L79.9547 205.906L78.0006 205.383ZM83.2248 212.632C82.9243 212.552 82.668 212.426 82.4559 212.254C82.2464 212.081 82.1001 211.87 82.0169 211.621C81.9358 211.372 81.9369 211.092 82.0202 210.781C82.0919 210.513 82.2006 210.305 82.3462 210.157C82.4919 210.008 82.6642 209.905 82.8631 209.845C83.0621 209.786 83.2758 209.759 83.5041 209.762C83.7351 209.765 83.9692 209.784 84.2063 209.822C84.4919 209.867 84.7241 209.902 84.9031 209.926C85.0826 209.947 85.218 209.944 85.3095 209.915C85.4035 209.885 85.4649 209.817 85.4936 209.71L85.4985 209.691C85.5608 209.459 85.5401 209.26 85.4364 209.096C85.3327 208.931 85.1512 208.814 84.8919 208.745C84.6182 208.671 84.3851 208.673 84.1926 208.749C84.0021 208.826 83.8573 208.938 83.7582 209.086L82.7544 208.658C82.914 208.392 83.1143 208.188 83.3555 208.045C83.5972 207.9 83.8679 207.816 84.1676 207.793C84.4677 207.767 84.7835 207.799 85.1149 207.888C85.3433 207.949 85.5636 208.037 85.7756 208.151C85.9877 208.265 86.1708 208.409 86.325 208.583C86.4797 208.754 86.5856 208.96 86.6425 209.2C86.7015 209.441 86.6889 209.719 86.6045 210.034L85.7541 213.208L84.6798 212.92L84.8543 212.268L84.8173 212.258C84.7141 212.372 84.5853 212.47 84.4309 212.552C84.2792 212.633 84.1013 212.683 83.8973 212.703C83.696 212.722 83.4718 212.699 83.2248 212.632ZM83.735 211.889C83.9594 211.949 84.1657 211.957 84.3541 211.913C84.543 211.866 84.7016 211.781 84.8298 211.656C84.96 211.532 85.0486 211.383 85.0955 211.208L85.2452 210.649C85.2025 210.669 85.1356 210.679 85.0446 210.681C84.9557 210.684 84.8573 210.681 84.7494 210.672C84.6415 210.663 84.5353 210.652 84.4305 210.639C84.3258 210.627 84.2351 210.616 84.1582 210.606C83.9854 210.584 83.8263 210.581 83.6808 210.597C83.5353 210.613 83.4121 210.658 83.3111 210.73C83.2107 210.8 83.1412 210.907 83.1026 211.051C83.0474 211.257 83.0809 211.432 83.203 211.578C83.3251 211.723 83.5025 211.827 83.735 211.889ZM91.5603 211.024L90.5118 210.863C90.5106 210.752 90.4861 210.642 90.4383 210.532C90.3926 210.423 90.3175 210.324 90.213 210.237C90.1085 210.149 89.9698 210.082 89.797 210.036C89.5644 209.973 89.3554 209.971 89.1699 210.03C88.9864 210.089 88.8742 210.199 88.8333 210.36C88.7943 210.497 88.8147 210.623 88.8944 210.737C88.9762 210.851 89.13 210.969 89.356 211.089L90.1185 211.478C90.5412 211.695 90.8335 211.938 90.9954 212.206C91.1594 212.475 91.1969 212.78 91.108 213.12C91.026 213.418 90.8679 213.658 90.6338 213.84C90.4023 214.021 90.1172 214.134 89.7784 214.18C89.4396 214.226 89.0727 214.196 88.6775 214.09C88.0971 213.935 87.6625 213.688 87.3736 213.35C87.0852 213.011 86.9655 212.613 87.0145 212.159L88.1324 212.346C88.1244 212.573 88.1861 212.763 88.3174 212.915C88.4487 213.067 88.643 213.178 88.9002 213.247C89.1657 213.318 89.3934 213.32 89.5831 213.254C89.7749 213.189 89.8924 213.076 89.9354 212.915C89.9718 212.779 89.9493 212.653 89.8681 212.536C89.7889 212.42 89.6466 212.309 89.4411 212.204L88.6778 211.817C88.2483 211.601 87.9545 211.351 87.7965 211.068C87.639 210.783 87.6076 210.468 87.7023 210.123C87.7785 209.83 87.9256 209.598 88.1435 209.427C88.364 209.255 88.634 209.148 88.9536 209.108C89.2758 209.067 89.6262 209.097 90.0049 209.198C90.5606 209.347 90.9662 209.583 91.2218 209.905C91.4794 210.227 91.5923 210.601 91.5603 211.024ZM93.0664 213.572L93.4248 212.222L93.6039 212.27L95.8184 210.822L97.1242 211.172L94.4027 212.944L94.1712 212.882L93.0664 213.572ZM91.649 214.787L93.3431 208.465L94.4606 208.764L92.7665 215.087L91.649 214.787ZM94.625 215.584L93.6596 213.013L94.6238 212.428L95.9617 215.943L94.625 215.584ZM103.469 213.041C103.512 212.763 103.447 212.521 103.273 212.313C103.101 212.106 102.846 211.957 102.506 211.866C102.267 211.802 102.053 211.783 101.863 211.81C101.673 211.836 101.516 211.899 101.392 211.998C101.268 212.097 101.184 212.226 101.14 212.384C101.105 212.515 101.104 212.637 101.138 212.75C101.173 212.863 101.235 212.968 101.321 213.064C101.409 213.158 101.51 213.245 101.626 213.324C101.741 213.404 101.859 213.476 101.981 213.542L102.534 213.849C102.758 213.968 102.967 214.105 103.162 214.259C103.359 214.413 103.525 214.586 103.662 214.777C103.8 214.968 103.894 215.179 103.942 215.411C103.99 215.642 103.978 215.895 103.904 216.168C103.805 216.539 103.623 216.84 103.358 217.071C103.094 217.3 102.761 217.446 102.361 217.508C101.963 217.569 101.511 217.532 101.004 217.396C100.512 217.265 100.106 217.074 99.7844 216.825C99.465 216.576 99.2426 216.278 99.1172 215.931C98.9938 215.585 98.9801 215.2 99.0762 214.775L100.203 215.077C100.16 215.302 100.179 215.503 100.259 215.681C100.34 215.86 100.466 216.01 100.638 216.134C100.812 216.257 101.019 216.351 101.257 216.415C101.506 216.482 101.734 216.503 101.942 216.48C102.151 216.454 102.328 216.389 102.47 216.284C102.614 216.177 102.711 216.033 102.761 215.852C102.804 215.687 102.792 215.538 102.726 215.406C102.66 215.271 102.552 215.145 102.4 215.027C102.251 214.908 102.071 214.789 101.86 214.671L101.191 214.293C100.706 214.02 100.349 213.707 100.119 213.354C99.8916 213 99.8387 212.596 99.96 212.144C100.06 211.771 100.248 211.472 100.525 211.246C100.804 211.021 101.139 210.878 101.53 210.817C101.922 210.754 102.339 210.782 102.781 210.901C103.23 211.021 103.602 211.205 103.898 211.452C104.196 211.697 104.405 211.983 104.524 212.311C104.644 212.637 104.66 212.978 104.571 213.336L103.469 213.041ZM106.475 218.859C105.999 218.731 105.615 218.523 105.322 218.232C105.032 217.941 104.843 217.588 104.756 217.174C104.669 216.758 104.692 216.302 104.824 215.806C104.955 215.318 105.162 214.915 105.446 214.596C105.733 214.276 106.072 214.058 106.462 213.942C106.853 213.824 107.275 213.826 107.728 213.947C108.02 214.025 108.283 214.147 108.517 214.311C108.754 214.473 108.946 214.679 109.093 214.928C109.242 215.178 109.334 215.469 109.368 215.803C109.403 216.134 109.365 216.508 109.253 216.923L109.161 217.266L105.275 216.225L105.477 215.471L108.292 216.226C108.347 216.011 108.352 215.808 108.306 215.617C108.261 215.424 108.17 215.258 108.033 215.117C107.899 214.978 107.724 214.879 107.51 214.822C107.282 214.76 107.066 214.762 106.864 214.827C106.661 214.89 106.488 214.998 106.343 215.151C106.201 215.303 106.101 215.484 106.042 215.696L105.866 216.353C105.792 216.629 105.779 216.879 105.827 217.104C105.875 217.326 105.976 217.514 106.129 217.668C106.282 217.819 106.481 217.927 106.723 217.992C106.886 218.036 107.039 218.053 107.183 218.043C107.328 218.031 107.46 217.992 107.581 217.928C107.702 217.863 107.805 217.771 107.891 217.65L108.903 218.047C108.763 218.305 108.573 218.512 108.332 218.668C108.095 218.823 107.818 218.919 107.501 218.955C107.185 218.99 106.843 218.958 106.475 218.859ZM112.365 213.562L110.671 219.884L109.554 219.585L111.248 213.262L112.365 213.562ZM113.895 220.847C113.419 220.72 113.035 220.511 112.742 220.221C112.452 219.929 112.263 219.576 112.176 219.162C112.088 218.746 112.111 218.29 112.244 217.794C112.375 217.306 112.582 216.903 112.866 216.584C113.153 216.264 113.491 216.046 113.882 215.93C114.273 215.812 114.695 215.814 115.148 215.935C115.44 216.013 115.703 216.135 115.937 216.299C116.174 216.461 116.366 216.667 116.513 216.916C116.662 217.166 116.754 217.457 116.788 217.791C116.823 218.122 116.785 218.496 116.673 218.911L116.581 219.254L112.695 218.213L112.897 217.459L115.712 218.214C115.767 217.999 115.772 217.796 115.726 217.605C115.681 217.412 115.59 217.246 115.453 217.105C115.318 216.966 115.144 216.867 114.93 216.81C114.702 216.749 114.486 216.75 114.283 216.815C114.081 216.878 113.908 216.986 113.763 217.139C113.621 217.291 113.521 217.472 113.462 217.684L113.286 218.341C113.212 218.617 113.199 218.867 113.247 219.092C113.295 219.314 113.396 219.502 113.549 219.656C113.702 219.807 113.901 219.916 114.143 219.981C114.306 220.024 114.459 220.041 114.603 220.031C114.747 220.019 114.88 219.981 115.001 219.916C115.122 219.851 115.225 219.759 115.31 219.638L116.322 220.035C116.183 220.293 115.993 220.5 115.752 220.657C115.515 220.811 115.237 220.907 114.921 220.943C114.605 220.978 114.263 220.946 113.895 220.847ZM119.017 222.22C118.544 222.093 118.165 221.88 117.881 221.581C117.599 221.283 117.416 220.926 117.331 220.51C117.248 220.094 117.271 219.645 117.4 219.166C117.529 218.684 117.736 218.284 118.019 217.965C118.304 217.644 118.643 217.426 119.035 217.311C119.43 217.194 119.86 217.198 120.323 217.322C120.708 217.425 121.029 217.587 121.287 217.809C121.548 218.028 121.733 218.291 121.841 218.595C121.95 218.898 121.97 219.224 121.904 219.572L120.835 219.286C120.853 219.046 120.802 218.828 120.68 218.632C120.561 218.434 120.366 218.3 120.097 218.227C119.868 218.166 119.651 218.174 119.445 218.251C119.24 218.326 119.058 218.465 118.9 218.668C118.744 218.871 118.623 219.132 118.538 219.451C118.451 219.774 118.424 220.064 118.457 220.322C118.489 220.578 118.575 220.792 118.712 220.963C118.852 221.133 119.038 221.249 119.27 221.311C119.435 221.355 119.59 221.364 119.737 221.337C119.885 221.309 120.02 221.246 120.14 221.151C120.261 221.055 120.361 220.926 120.439 220.764L121.507 221.05C121.391 221.379 121.212 221.65 120.972 221.863C120.732 222.075 120.446 222.214 120.112 222.281C119.779 222.347 119.414 222.326 119.017 222.22ZM125.629 218.81L125.398 219.674L122.672 218.944L122.903 218.079L125.629 218.81ZM123.881 217.124L124.998 217.423L123.805 221.875C123.765 222.025 123.757 222.146 123.781 222.239C123.807 222.33 123.854 222.4 123.923 222.449C123.991 222.498 124.072 222.535 124.164 222.56C124.234 222.579 124.3 222.591 124.36 222.596C124.422 222.601 124.47 222.604 124.503 222.604L124.457 223.528C124.392 223.533 124.301 223.533 124.183 223.528C124.067 223.523 123.93 223.502 123.77 223.463C123.488 223.397 123.247 223.287 123.048 223.134C122.849 222.979 122.71 222.786 122.631 222.553C122.554 222.32 122.557 222.056 122.638 221.76L123.881 217.124ZM127.317 224.443C126.841 224.316 126.457 224.107 126.164 223.817C125.874 223.525 125.685 223.172 125.598 222.759C125.511 222.343 125.533 221.887 125.666 221.391C125.797 220.903 126.004 220.5 126.288 220.181C126.575 219.861 126.913 219.642 127.304 219.527C127.695 219.409 128.117 219.41 128.57 219.532C128.862 219.61 129.125 219.731 129.359 219.895C129.596 220.058 129.788 220.264 129.935 220.513C130.084 220.762 130.176 221.054 130.21 221.387C130.245 221.719 130.207 222.092 130.095 222.508L130.003 222.851L126.117 221.809L126.319 221.056L129.134 221.81C129.189 221.596 129.194 221.393 129.148 221.202C129.103 221.009 129.012 220.842 128.875 220.702C128.74 220.562 128.566 220.464 128.352 220.406C128.124 220.345 127.908 220.347 127.705 220.412C127.503 220.474 127.33 220.582 127.185 220.736C127.043 220.887 126.943 221.069 126.884 221.28L126.708 221.938C126.634 222.213 126.621 222.464 126.669 222.688C126.717 222.911 126.818 223.099 126.971 223.252C127.124 223.404 127.323 223.512 127.565 223.577C127.728 223.621 127.881 223.637 128.025 223.627C128.169 223.615 128.302 223.577 128.423 223.512C128.544 223.448 128.647 223.355 128.732 223.235L129.744 223.632C129.605 223.89 129.415 224.097 129.174 224.253C128.937 224.408 128.659 224.503 128.343 224.54C128.027 224.574 127.685 224.542 127.317 224.443ZM132.133 225.724C131.76 225.624 131.452 225.439 131.209 225.169C130.966 224.899 130.808 224.558 130.735 224.148C130.662 223.738 130.695 223.273 130.835 222.752C130.976 222.225 131.181 221.804 131.451 221.488C131.724 221.171 132.033 220.959 132.379 220.853C132.726 220.745 133.081 220.74 133.445 220.838C133.723 220.912 133.939 221.021 134.093 221.164C134.247 221.304 134.359 221.454 134.428 221.614C134.499 221.772 134.547 221.916 134.574 222.047L134.62 222.059L135.254 219.695L136.374 219.995L134.68 226.317L133.581 226.023L133.782 225.276L133.714 225.258C133.625 225.357 133.509 225.457 133.365 225.558C133.222 225.656 133.049 225.727 132.845 225.769C132.642 225.812 132.404 225.797 132.133 225.724ZM132.69 224.891C132.927 224.954 133.146 224.944 133.347 224.861C133.548 224.776 133.723 224.63 133.871 224.423C134.019 224.216 134.134 223.959 134.217 223.652C134.299 223.345 134.327 223.067 134.301 222.818C134.277 222.569 134.199 222.359 134.066 222.189C133.935 222.019 133.749 221.902 133.508 221.838C133.259 221.771 133.034 221.78 132.833 221.865C132.631 221.95 132.458 222.095 132.312 222.301C132.166 222.507 132.054 222.757 131.975 223.051C131.896 223.348 131.867 223.623 131.889 223.879C131.914 224.132 131.992 224.348 132.123 224.527C132.256 224.704 132.445 224.825 132.69 224.891Z" fill="white"/>
<rect x="66.9929" y="59.6512" width="53" height="5" rx="2.5" transform="rotate(15 66.9929 59.6512)" fill="#C5C6C7"/>
<rect x="66.0946" y="65.207" width="33.7829" height="5" rx="2.5" transform="rotate(15 66.0946 65.207)" fill="#C5C6C7"/>
<rect x="164.5" y="84.77" width="53" height="5" rx="2.5" transform="rotate(15 164.5 84.77)" fill="#C5C6C7"/>
<rect x="163.602" y="90.3258" width="33.7829" height="5" rx="2.5" transform="rotate(15 163.602 90.3258)" fill="#C5C6C7"/>
<rect x="58.4236" y="90.4995" width="53" height="5" rx="2.5" transform="rotate(15 58.4236 90.4995)" fill="#C5C6C7"/>
<rect x="57.5254" y="96.0552" width="33.7829" height="5" rx="2.5" transform="rotate(15 57.5254 96.0552)" fill="#C5C6C7"/>
<rect x="155.931" y="115.618" width="53" height="5" rx="2.5" transform="rotate(15 155.931 115.618)" fill="#C5C6C7"/>
<rect x="155.032" y="121.174" width="33.7829" height="5" rx="2.5" transform="rotate(15 155.032 121.174)" fill="#C5C6C7"/>
<rect x="50.3518" y="120.48" width="53" height="5" rx="2.5" transform="rotate(15 50.3518 120.48)" fill="#C5C6C7"/>
<rect x="49.4536" y="126.036" width="33.7829" height="5" rx="2.5" transform="rotate(15 49.4536 126.036)" fill="#C5C6C7"/>
<rect x="147.859" y="145.599" width="53" height="5" rx="2.5" transform="rotate(15 147.859 145.599)" fill="#C5C6C7"/>
<rect x="146.961" y="151.155" width="33.7829" height="5" rx="2.5" transform="rotate(15 146.961 151.155)" fill="#C5C6C7"/>
<rect x="41.7826" y="151.328" width="53" height="5" rx="2.5" transform="rotate(15 41.7826 151.328)" fill="#C5C6C7"/>
<rect x="40.8843" y="156.884" width="33.7829" height="5" rx="2.5" transform="rotate(15 40.8843 156.884)" fill="#C5C6C7"/>
<rect x="139.29" y="176.447" width="53" height="5" rx="2.5" transform="rotate(15 139.29 176.447)" fill="#C5C6C7"/>
<rect x="138.391" y="182.003" width="33.7829" height="5" rx="2.5" transform="rotate(15 138.391 182.003)" fill="#C5C6C7"/>
<ellipse cx="157.031" cy="53.6968" rx="8" ry="8.5" transform="rotate(30 157.031 53.6968)" fill="url(#paint2_linear_18_167)"/>
<path d="M160.851 52.3654L155.351 55.8654L154.351 52.3654" stroke="white" stroke-linecap="round"/>
<defs>
<filter id="filter0_d_18_167" x="7.23093" y="0.156189" width="257.101" height="207.656" filterUnits="userSpaceOnUse" color-interpolation-filters="sRGB">
<feFlood flood-opacity="0" result="BackgroundImageFix"/>
<feColorMatrix in="SourceAlpha" type="matrix" values="0 0 0 0 0 0 0 0 0 0 0 0 0 0 0 0 0 0 127 0" result="hardAlpha"/>
<feOffset dx="-2" dy="-2"/>
<feGaussianBlur stdDeviation="2"/>
<feComposite in2="hardAlpha" operator="out"/>
<feColorMatrix type="matrix" values="0 0 0 0 0 0 0 0 0 0 0 0 0 0 0 0 0 0 0.25 0"/>
<feBlend mode="normal" in2="BackgroundImageFix" result="effect1_dropShadow_18_167"/>
<feBlend mode="normal" in="SourceGraphic" in2="effect1_dropShadow_18_167" result="shape"/>
</filter>
<linearGradient id="paint0_linear_18_167" x1="125.509" y1="21.3049" x2="125.509" y2="267.305" gradientUnits="userSpaceOnUse">
<stop stop-color="#2433A6"/>
<stop offset="1" stop-color="#6676EB"/>
</linearGradient>
<linearGradient id="paint1_linear_18_167" x1="203.743" y1="191.776" x2="17.9611" y2="238.993" gradientUnits="userSpaceOnUse">
<stop stop-color="#6779F4"/>
<stop offset="1" stop-color="#2D45EF"/>
</linearGradient>
<linearGradient id="paint2_linear_18_167" x1="157.031" y1="45.1968" x2="157.031" y2="62.1968" gradientUnits="userSpaceOnUse">
<stop stop-color="#6779F4"/>
<stop offset="1" stop-color="#3D53F0"/>
</linearGradient>
</defs>
</svg>
