<svg xmlns="http://www.w3.org/2000/svg" version="1.1" xmlns:xlink="http://www.w3.org/1999/xlink" xmlns:svgjs="http://svgjs.dev/svgjs" width="1000" height="441" viewBox="0 0 1000 441"><g transform="matrix(1,0,0,1,-0.6060606060606233,-0.08145103271996845)"><svg viewBox="0 0 396 175" data-background-color="#ffffff" preserveAspectRatio="xMidYMid meet" height="441" width="1000" xmlns="http://www.w3.org/2000/svg" xmlns:xlink="http://www.w3.org/1999/xlink"><g id="tight-bounds" transform="matrix(1,0,0,1,0.2400000000000091,0.032321838380937606)"><svg viewBox="0 0 395.52 174.93535632323812" height="174.93535632323812" width="395.52"><g><svg viewBox="0 0 395.52 174.93535632323812" height="174.93535632323812" width="395.52"><g><svg viewBox="0 0 748.6857438289721 331.13776135429265" height="174.93535632323812" width="395.52"><g transform="matrix(1,0,0,1,353.1657438289722,105.6669701571947)"><svg viewBox="0 0 395.52 119.80382103990326" height="119.80382103990326" width="395.52"><g id="textblocktransform"><svg viewBox="0 0 395.52 119.80382103990326" height="119.80382103990326" width="395.52" id="textblock"><g><svg viewBox="0 0 395.52 119.80382103990326" height="119.80382103990326" width="395.52"><g transform="matrix(1,0,0,1,0,0)"><svg width="395.52" viewBox="2.55 -37 165.39 50.1" height="119.80382103990326" data-palette-color="url(#3696db5e-5fd5-404e-9c61-70b7f00e7b5d)"></svg></g></svg></g></svg></g></svg></g><g><svg viewBox="0 0 324.882936973156 331.13776135429265" height="331.13776135429265" width="324.882936973156"><g><svg xmlns="http://www.w3.org/2000/svg" xmlns:xlink="http://www.w3.org/1999/xlink" version="1.1" x="0" y="0" viewBox="5.8 5 88.30000000000001 90.00000000000001" enable-background="new 0 0 100 100" xml:space="preserve" height="331.13776135429265" width="324.882936973156" class="icon-icon-0" data-fill-palette-color="accent" id="icon-0"></svg></g></svg></g></svg></g></svg></g><defs></defs><mask id="093558ca-45ea-40fc-a753-68a6c6ebca1c"><g id="SvgjsG1621"><svg viewBox="0 0 395.52 174.93535632323812" height="174.93535632323812" width="395.52"><g><svg viewBox="0 0 395.52 174.93535632323812" height="174.93535632323812" width="395.52"><g><svg viewBox="0 0 748.6857438289721 331.13776135429265" height="174.93535632323812" width="395.52"><g transform="matrix(1,0,0,1,353.1657438289722,105.6669701571947)"><svg viewBox="0 0 395.52 119.80382103990326" height="119.80382103990326" width="395.52"><g id="SvgjsG1620"><svg viewBox="0 0 395.52 119.80382103990326" height="119.80382103990326" width="395.52" id="SvgjsSvg1619"><g><svg viewBox="0 0 395.52 119.80382103990326" height="119.80382103990326" width="395.52"><g transform="matrix(1,0,0,1,0,0)"><svg width="395.52" viewBox="2.55 -37 165.39 50.1" height="119.80382103990326" data-palette-color="url(#3696db5e-5fd5-404e-9c61-70b7f00e7b5d)"><path d="M15.5 0.35Q11.85 0.35 8.93-0.9 6-2.15 4.3-4.5 2.6-6.85 2.55-10.05L2.55-10.05 10.05-10.05Q10.2-7.9 11.58-6.65 12.95-5.4 15.35-5.4L15.35-5.4Q17.8-5.4 19.2-6.58 20.6-7.75 20.6-9.65L20.6-9.65Q20.6-11.2 19.65-12.2 18.7-13.2 17.28-13.78 15.85-14.35 13.35-15.05L13.35-15.05Q9.95-16.05 7.83-17.03 5.7-18 4.17-19.98 2.65-21.95 2.65-25.25L2.65-25.25Q2.65-28.35 4.2-30.65 5.75-32.95 8.55-34.18 11.35-35.4 14.95-35.4L14.95-35.4Q20.35-35.4 23.73-32.77 27.1-30.15 27.45-25.45L27.45-25.45 19.75-25.45Q19.65-27.25 18.23-28.43 16.8-29.6 14.45-29.6L14.45-29.6Q12.4-29.6 11.18-28.55 9.95-27.5 9.95-25.5L9.95-25.5Q9.95-24.1 10.88-23.18 11.8-22.25 13.18-21.68 14.55-21.1 17.05-20.35L17.05-20.35Q20.45-19.35 22.6-18.35 24.75-17.35 26.3-15.35 27.85-13.35 27.85-10.1L27.85-10.1Q27.85-7.3 26.4-4.9 24.95-2.5 22.15-1.07 19.35 0.35 15.5 0.35L15.5 0.35ZM52.95-27.7L60.4-27.7 43.25 13.1 35.8 13.1 41.8-0.7 30.7-27.7 38.55-27.7 45.7-8.35 52.95-27.7ZM64.15-37L71.15-37 71.15 0 64.15 0 64.15-37ZM90.34 0.45Q86.34 0.45 83.14-1.33 79.94-3.1 78.12-6.35 76.29-9.6 76.29-13.85L76.29-13.85Q76.29-18.1 78.17-21.35 80.04-24.6 83.29-26.38 86.54-28.15 90.54-28.15L90.54-28.15Q94.54-28.15 97.79-26.38 101.04-24.6 102.92-21.35 104.79-18.1 104.79-13.85L104.79-13.85Q104.79-9.6 102.87-6.35 100.94-3.1 97.67-1.33 94.39 0.45 90.34 0.45L90.34 0.45ZM90.34-5.65Q92.24-5.65 93.92-6.58 95.59-7.5 96.59-9.35 97.59-11.2 97.59-13.85L97.59-13.85Q97.59-17.8 95.52-19.93 93.44-22.05 90.44-22.05L90.44-22.05Q87.44-22.05 85.42-19.93 83.39-17.8 83.39-13.85L83.39-13.85Q83.39-9.9 85.37-7.78 87.34-5.65 90.34-5.65L90.34-5.65ZM125.29-28.1Q130.24-28.1 133.29-24.98 136.34-21.85 136.34-16.25L136.34-16.25 136.34 0 129.34 0 129.34-15.3Q129.34-18.6 127.69-20.38 126.04-22.15 123.19-22.15L123.19-22.15Q120.29-22.15 118.62-20.38 116.94-18.6 116.94-15.3L116.94-15.3 116.94 0 109.94 0 109.94-27.7 116.94-27.7 116.94-24.25Q118.34-26.05 120.52-27.08 122.69-28.1 125.29-28.1L125.29-28.1ZM141.19-13.85Q141.19-18.15 142.94-21.38 144.69-24.6 147.79-26.38 150.89-28.15 154.89-28.15L154.89-28.15Q160.04-28.15 163.41-25.58 166.79-23 167.94-18.35L167.94-18.35 160.39-18.35Q159.79-20.15 158.36-21.18 156.94-22.2 154.84-22.2L154.84-22.2Q151.84-22.2 150.09-20.03 148.34-17.85 148.34-13.85L148.34-13.85Q148.34-9.9 150.09-7.73 151.84-5.55 154.84-5.55L154.84-5.55Q159.09-5.55 160.39-9.35L160.39-9.35 167.94-9.35Q166.79-4.85 163.39-2.2 159.99 0.45 154.89 0.45L154.89 0.45Q150.89 0.45 147.79-1.33 144.69-3.1 142.94-6.33 141.19-9.55 141.19-13.85L141.19-13.85Z" opacity="1" transform="matrix(1,0,0,1,0,0)" fill="white" class="wordmark-text-0" id="SvgjsPath1618"></path></svg></g></svg></g></svg></g></svg></g><g><svg viewBox="0 0 324.882936973156 331.13776135429265" height="331.13776135429265" width="324.882936973156"><g><svg xmlns="http://www.w3.org/2000/svg" xmlns:xlink="http://www.w3.org/1999/xlink" version="1.1" x="0" y="0" viewBox="5.8 5 88.30000000000001 90.00000000000001" enable-background="new 0 0 100 100" xml:space="preserve" height="331.13776135429265" width="324.882936973156" class="icon-icon-0" data-fill-palette-color="accent" id="SvgjsSvg1617"></svg></g></svg></g></svg></g></svg></g><defs><mask></mask></defs></svg></g></mask><linearGradient x1="0" x2="1" y1="0.5" y2="0.5" id="3696db5e-5fd5-404e-9c61-70b7f00e7b5d"><stop stop-color="#f00b51" offset="0"></stop><stop stop-color="#730062" offset="1"></stop></linearGradient><rect width="395.52" height="174.93535632323812" fill="url(#3696db5e-5fd5-404e-9c61-70b7f00e7b5d)" mask="url(#093558ca-45ea-40fc-a753-68a6c6ebca1c)" data-fill-palette-color="primary"></rect><mask id="aac5c0f6-306b-4985-88a0-09af71f36180"><g id="SvgjsG1630"><svg viewBox="0 0 395.52 174.93535632323812" height="174.93535632323812" width="395.52"><g><svg viewBox="0 0 395.52 174.93535632323812" height="174.93535632323812" width="395.52"><g><svg viewBox="0 0 748.6857438289721 331.13776135429265" height="174.93535632323812" width="395.52"><g transform="matrix(1,0,0,1,353.1657438289722,105.6669701571947)"><svg viewBox="0 0 395.52 119.80382103990326" height="119.80382103990326" width="395.52"><g id="SvgjsG1629"><svg viewBox="0 0 395.52 119.80382103990326" height="119.80382103990326" width="395.52" id="SvgjsSvg1628"><g><svg viewBox="0 0 395.52 119.80382103990326" height="119.80382103990326" width="395.52"><g transform="matrix(1,0,0,1,0,0)"><svg width="395.52" viewBox="2.55 -37 165.39 50.1" height="119.80382103990326" data-palette-color="url(#3696db5e-5fd5-404e-9c61-70b7f00e7b5d)"></svg></g></svg></g></svg></g></svg></g><g><svg viewBox="0 0 324.882936973156 331.13776135429265" height="331.13776135429265" width="324.882936973156"><g><svg xmlns="http://www.w3.org/2000/svg" xmlns:xlink="http://www.w3.org/1999/xlink" version="1.1" x="0" y="0" viewBox="5.8 5 88.30000000000001 90.00000000000001" enable-background="new 0 0 100 100" xml:space="preserve" height="331.13776135429265" width="324.882936973156" class="icon-icon-0" data-fill-palette-color="accent" id="SvgjsSvg1627"><path d="M91.3 18.7L48.5 5.4 47.1 5l-1.3 0.5-37.2 15-2.5 1 0 2.7L5.8 77.4l0 3 2.8 0.9 42.9 13.3 1.4 0.4 1.3-0.5 37.2-15 2.5-1 0-2.7 0.2-53.1 0-3L91.3 18.7zM53.4 37.9l2-0.8-2 2L53.4 37.9zM53.4 42l6.8-6.8 2-0.8-8.7 8.7L53.4 42zM53.4 46l13.5-13.5 2-0.8L53.4 47.2 53.4 46zM53.4 50.1l20.3-20.3 2-0.8L53.4 51.2 53.4 50.1zM53.4 54.1L80.4 27l2-0.8-29 29L53.4 54.1zM53.3 58.1l33.8-33.8 2-0.8L53.3 59.3 53.3 58.1zM53.2 86.4l36.3-36.3 0 1.2L53.2 87.6 53.2 86.4zM53.3 83.5l0-1.2 36.3-36.3 0 1.2L53.3 83.5zM53.3 79.5l0-1.2L89.6 42l0 1.2L53.3 79.5zM53.3 75.5l0-1.2L89.6 38l0 1.2L53.3 75.5zM53.3 71.4l0-1.2 36.3-36.3 0 1.2L53.3 71.4zM53.3 67.4l0-1.2 36.3-36.3 0 1.2L53.3 67.4zM53.3 63.4l0-1.2 36.3-36.3 0 1.2L53.3 63.4zM13 24.2l34.3-13.9 39.8 12.4L52.9 36.5 13 24.2zM54 89.7l35.6-35.6 0 1.2L56 88.9 54 89.7zM83 78l-2 0.8 8.5-8.5 0 1.2L83 78zM89.5 74.3l0 1L87.7 76 89.5 74.3zM76.2 80.7l-2 0.8 15.3-15.3 0 1.2L76.2 80.7zM69.5 83.4l-2 0.8 22-22 0 1.2L69.5 83.4zM62.7 86.2l-2 0.8 28.8-28.8 0 1.2L62.7 86.2z" fill="white"></path></svg></g></svg></g></svg></g></svg></g><defs><mask></mask></defs><mask><g id="SvgjsG1626"><svg viewBox="0 0 395.52 174.93535632323812" height="174.93535632323812" width="395.52"><g><svg viewBox="0 0 395.52 174.93535632323812" height="174.93535632323812" width="395.52"><g><svg viewBox="0 0 748.6857438289721 331.13776135429265" height="174.93535632323812" width="395.52"><g transform="matrix(1,0,0,1,353.1657438289722,105.6669701571947)"><svg viewBox="0 0 395.52 119.80382103990326" height="119.80382103990326" width="395.52"><g id="SvgjsG1625"><svg viewBox="0 0 395.52 119.80382103990326" height="119.80382103990326" width="395.52" id="SvgjsSvg1624"><g><svg viewBox="0 0 395.52 119.80382103990326" height="119.80382103990326" width="395.52"><g transform="matrix(1,0,0,1,0,0)"><svg width="395.52" viewBox="2.55 -37 165.39 50.1" height="119.80382103990326" data-palette-color="url(#3696db5e-5fd5-404e-9c61-70b7f00e7b5d)"></svg></g></svg></g></svg></g></svg></g><g><svg viewBox="0 0 324.882936973156 331.13776135429265" height="331.13776135429265" width="324.882936973156"><g><svg xmlns="http://www.w3.org/2000/svg" xmlns:xlink="http://www.w3.org/1999/xlink" version="1.1" x="0" y="0" viewBox="5.8 5 88.30000000000001 90.00000000000001" enable-background="new 0 0 100 100" xml:space="preserve" height="331.13776135429265" width="324.882936973156" class="icon-icon-0" data-fill-palette-color="accent" id="SvgjsSvg1622"></svg></g></svg></g></svg></g></svg></g><defs><mask></mask></defs></svg></g></mask></svg></g></mask><linearGradient x1="0" x2="1" y1="0.5" y2="0.5" id="90868a31-6081-4a60-86eb-0a328e971c8c"><stop stop-color="#f00b51" offset="0"></stop><stop stop-color="#730062" offset="1"></stop></linearGradient><rect width="395.52" height="174.93535632323812" fill="url(#90868a31-6081-4a60-86eb-0a328e971c8c)" mask="url(#aac5c0f6-306b-4985-88a0-09af71f36180)" data-fill-palette-color="accent"></rect></svg><rect width="395.52" height="174.93535632323812" fill="none" stroke="none" visibility="hidden"></rect></g></svg></g></svg>